<svg version="1.1" id="Layer_1" xmlns="http://www.w3.org/2000/svg" xmlns:xlink="http://www.w3.org/1999/xlink" x="0px" y="0px"
	 width="100%" viewBox="0 0 218 59" enable-background="new 0 0 218 59" xml:space="preserve">
<path fill="#222B3F" opacity="1.000000" stroke="none" 
	d="
M158.000000,60.000000 
	C105.333336,60.000000 53.166679,60.000000 1.000014,60.000000 
	C1.000009,40.333344 1.000009,20.666683 1.000005,1.000019 
	C73.666649,1.000013 146.333298,1.000013 218.999969,1.000006 
	C218.999969,20.666647 218.999969,40.333294 218.999985,59.999969 
	C198.833328,60.000000 178.666672,60.000000 158.000000,60.000000 
M22.440001,37.687073 
	C24.439602,39.093201 26.302673,41.382477 28.467907,41.717209 
	C32.666012,42.366211 37.036503,42.008926 41.330986,41.895451 
	C45.742523,41.778885 47.998692,39.462776 47.911572,34.138176 
	C47.861481,31.775967 47.811390,29.413755 47.864254,26.150274 
	C47.911228,17.582670 46.448559,16.112087 37.860054,16.099190 
	C35.385002,16.095474 32.892254,16.290560 30.438168,16.063829 
	C22.766207,15.355039 19.396444,22.468452 23.920425,28.822033 
	C23.406267,31.548172 22.892111,34.274311 22.440001,37.687073 
M107.894798,36.965721 
	C109.498070,37.405273 111.101341,37.844822 112.989845,38.362572 
	C112.989845,31.504810 112.989845,25.424032 112.989845,19.153526 
	C111.361061,19.153526 109.926620,19.153526 107.881592,19.153526 
	C107.881592,22.125956 107.881592,24.943407 107.881592,28.458549 
	C100.286087,18.985363 100.286087,18.985363 96.620110,19.391512 
	C96.620110,25.468300 96.620110,31.562012 96.620110,38.051849 
	C98.410522,37.948212 99.956879,37.858696 102.104950,37.734356 
	C102.104950,34.853447 102.104950,32.390255 102.104950,28.739388 
	C104.412483,32.033916 105.923050,34.190594 107.894798,36.965721 
M115.399078,28.502880 
	C115.399078,31.596560 115.399078,34.690239 115.399078,38.055561 
	C117.516418,37.949917 118.943588,37.878712 120.524918,37.799812 
	C120.701172,35.003975 120.859413,32.493980 121.029655,29.793427 
	C125.394844,32.021423 125.085213,39.763165 131.921387,37.684711 
	C131.921387,31.450691 131.921387,25.364523 131.921387,19.217144 
	C130.229828,19.217144 128.810898,19.217144 126.979706,19.217144 
	C126.979706,22.181322 126.979706,24.907057 126.979706,28.050238 
	C118.440208,19.050013 118.440208,19.050013 115.399117,19.643606 
	C115.399117,22.241177 115.399117,24.895367 115.399078,28.502880 
M86.130524,38.301548 
	C91.851082,37.025749 94.597244,33.797092 94.523201,28.434299 
	C94.452019,23.278818 91.528015,19.623796 86.898582,18.903498 
	C80.987343,17.983761 76.610428,21.111362 75.871689,26.782963 
	C74.981911,33.614056 78.293587,37.631824 86.130524,38.301548 
M139.602844,18.956484 
	C137.997559,19.029610 136.392273,19.102736 134.695816,19.180016 
	C134.695816,25.613222 134.695816,31.689804 134.695816,37.861595 
	C139.280045,37.861595 143.560898,37.861595 147.841751,37.861595 
	C148.161240,37.483894 148.480728,37.106194 148.800217,36.728497 
	C147.724335,35.813183 146.778122,34.568913 145.534653,34.078690 
	C144.381348,33.624008 142.869171,34.166885 141.596130,33.893208 
	C140.918091,33.747433 140.411835,32.802654 139.828049,32.218510 
	C140.370407,31.747070 140.842789,31.128422 141.467987,30.831245 
	C143.501831,29.864489 147.394669,32.853809 147.438766,28.285133 
	C147.445282,27.608997 143.555817,26.989479 141.550705,26.148588 
	C140.848984,25.854303 140.393524,24.972815 139.825607,24.359474 
	C140.385468,23.917414 140.900925,23.187447 141.514359,23.092876 
	C142.815231,22.892323 144.168900,22.976915 145.497833,23.026562 
	C149.034607,23.158676 148.694305,21.351984 147.694824,18.956450 
	C145.179398,18.956450 142.853058,18.956450 139.602844,18.956484 
M161.705246,33.302319 
	C159.114334,34.777058 156.734665,34.017502 156.253937,31.363297 
	C155.832031,29.033815 156.911179,26.432467 157.327316,23.951199 
	C159.131729,24.327078 160.936111,24.703192 162.740585,25.078768 
	C164.438095,25.432079 166.135727,25.784824 168.245804,26.223595 
	C166.288010,19.896276 163.116074,17.966661 157.534805,18.938131 
	C152.729828,19.774481 149.934570,23.669205 150.207504,29.147528 
	C150.471146,34.439960 153.397949,37.770378 158.221939,38.267254 
	C163.693268,38.830795 166.627045,36.800426 168.146652,30.454708 
	C165.778442,31.375704 164.027847,32.056515 161.705246,33.302319 
M65.422287,18.694284 
	C56.594002,18.339943 54.334282,27.431963 56.852856,33.294994 
	C58.812820,37.857624 62.750515,38.852596 67.212502,38.140427 
	C70.942673,37.545063 73.285934,35.432278 73.802597,30.114321 
	C71.196899,31.355505 69.535446,32.517132 67.709084,32.907799 
	C66.041153,33.264572 62.698341,32.962925 62.661320,32.648827 
	C62.337330,29.899918 62.430252,27.055704 62.898697,24.325409 
	C62.949936,24.026758 66.202805,23.988337 67.866821,24.332050 
	C69.749863,24.721008 71.515717,25.677345 74.031448,26.659962 
	C72.965492,21.049486 70.261124,19.101755 65.422287,18.694284 
M181.340576,23.091175 
	C185.843613,22.847397 185.843613,22.847397 185.692642,19.180305 
	C180.462875,19.180305 175.224213,19.180305 169.860077,19.180305 
	C168.113358,24.814291 173.492783,21.995932 175.373138,23.870543 
	C175.373138,28.388607 175.373138,33.102074 175.373138,38.077724 
	C177.244415,37.950211 178.658539,37.853851 180.490540,37.729012 
	C180.490540,32.821331 180.490540,28.198774 181.340576,23.091175 
z"/>
<path fill="#ECECEE" opacity="1.000000" stroke="none" 
	d="
M107.664207,36.656494 
	C105.923050,34.190594 104.412483,32.033916 102.104950,28.739388 
	C102.104950,32.390255 102.104950,34.853447 102.104950,37.734356 
	C99.956879,37.858696 98.410522,37.948212 96.620110,38.051849 
	C96.620110,31.562012 96.620110,25.468300 96.620110,19.391512 
	C100.286087,18.985363 100.286087,18.985363 107.881592,28.458549 
	C107.881592,24.943407 107.881592,22.125956 107.881592,19.153526 
	C109.926620,19.153526 111.361061,19.153526 112.989845,19.153526 
	C112.989845,25.424032 112.989845,31.504810 112.989845,38.362572 
	C111.101341,37.844822 109.498070,37.405273 107.664207,36.656494 
z"/>
<path fill="#ECECEE" opacity="1.000000" stroke="none" 
	d="
M115.399094,28.026218 
	C115.399117,24.895367 115.399117,22.241177 115.399117,19.643606 
	C118.440208,19.050013 118.440208,19.050013 126.979706,28.050238 
	C126.979706,24.907057 126.979706,22.181322 126.979706,19.217144 
	C128.810898,19.217144 130.229828,19.217144 131.921387,19.217144 
	C131.921387,25.364523 131.921387,31.450691 131.921387,37.684711 
	C125.085213,39.763165 125.394844,32.021423 121.029655,29.793427 
	C120.859413,32.493980 120.701172,35.003975 120.524918,37.799812 
	C118.943588,37.878712 117.516418,37.949917 115.399078,38.055561 
	C115.399078,34.690239 115.399078,31.596560 115.399094,28.026218 
z"/>
<path fill="#F3F3F4" opacity="1.000000" stroke="none" 
	d="
M85.754517,38.309166 
	C78.293587,37.631824 74.981911,33.614056 75.871689,26.782963 
	C76.610428,21.111362 80.987343,17.983761 86.898582,18.903498 
	C91.528015,19.623796 94.452019,23.278818 94.523201,28.434299 
	C94.597244,33.797092 91.851082,37.025749 85.754517,38.309166 
M87.603249,33.057880 
	C87.931557,30.547573 88.978745,27.858311 88.409462,25.571442 
	C87.667892,22.592518 84.525291,21.724833 82.696579,24.201361 
	C81.393570,25.965942 81.360252,29.209621 81.890808,31.535341 
	C82.121498,32.546604 85.189201,32.910675 87.603249,33.057880 
z"/>
<path fill="#88AFF3" opacity="1.000000" stroke="none" 
	d="
M23.864920,28.059750 
	C19.396444,22.468452 22.766207,15.355039 30.438168,16.063829 
	C32.892254,16.290560 35.385002,16.095474 37.860054,16.099190 
	C46.448559,16.112087 47.911228,17.582670 47.472961,26.436909 
	C45.990047,26.155495 44.898426,25.587446 43.443893,25.027012 
	C42.039906,26.677284 40.998829,28.319941 39.592243,29.886719 
	C38.971596,29.623449 38.496521,29.439907 38.493164,29.248112 
	C38.380035,22.784101 33.679295,23.739721 29.747616,24.085348 
	C24.716347,24.527637 27.639183,28.560396 27.010311,30.994425 
	C26.930269,31.304228 26.972845,31.645710 26.725733,31.758528 
	C25.616875,30.382942 24.740896,29.221346 23.864920,28.059750 
z"/>
<path fill="#EAEBED" opacity="1.000000" stroke="none" 
	d="
M140.064789,18.956467 
	C142.853058,18.956450 145.179398,18.956450 147.694824,18.956450 
	C148.694305,21.351984 149.034607,23.158676 145.497833,23.026562 
	C144.168900,22.976915 142.815231,22.892323 141.514359,23.092876 
	C140.900925,23.187447 140.385468,23.917414 139.825607,24.359472 
	C140.393524,24.972815 140.848984,25.854303 141.550705,26.148588 
	C143.555817,26.989479 147.445282,27.608997 147.438766,28.285133 
	C147.394669,32.853809 143.501831,29.864489 141.467987,30.831245 
	C140.842789,31.128422 140.370407,31.747070 139.828049,32.218513 
	C140.411835,32.802654 140.918091,33.747433 141.596130,33.893208 
	C142.869171,34.166885 144.381348,33.624008 145.534653,34.078690 
	C146.778122,34.568913 147.724335,35.813183 148.800217,36.728497 
	C148.480728,37.106194 148.161240,37.483894 147.841751,37.861595 
	C143.560898,37.861595 139.280045,37.861595 134.695816,37.861595 
	C134.695816,31.689804 134.695816,25.613222 134.695816,19.180016 
	C136.392273,19.102736 137.997559,19.029610 140.064789,18.956467 
z"/>
<path fill="#EFEFF1" opacity="1.000000" stroke="none" 
	d="
M161.991241,33.019825 
	C164.027847,32.056515 165.778442,31.375704 168.146652,30.454708 
	C166.627045,36.800426 163.693268,38.830795 158.221939,38.267254 
	C153.397949,37.770378 150.471146,34.439960 150.207504,29.147528 
	C149.934570,23.669205 152.729828,19.774481 157.534805,18.938131 
	C163.116074,17.966661 166.288010,19.896276 168.245804,26.223595 
	C166.135727,25.784824 164.438095,25.432079 162.740585,25.078768 
	C160.936111,24.703192 159.131729,24.327078 157.327332,23.951199 
	C156.911179,26.432467 155.832031,29.033815 156.253937,31.363297 
	C156.734665,34.017502 159.114334,34.777058 161.991241,33.019825 
z"/>
<path fill="#F1F1F3" opacity="1.000000" stroke="none" 
	d="
M65.791779,18.728264 
	C70.261124,19.101755 72.965492,21.049486 74.031448,26.659962 
	C71.515717,25.677345 69.749863,24.721008 67.866821,24.332050 
	C66.202805,23.988337 62.949936,24.026758 62.898697,24.325409 
	C62.430252,27.055704 62.337330,29.899918 62.661320,32.648827 
	C62.698341,32.962925 66.041153,33.264572 67.709084,32.907799 
	C69.535446,32.517132 71.196899,31.355505 73.802597,30.114321 
	C73.285934,35.432278 70.942673,37.545063 67.212502,38.140427 
	C62.750515,38.852596 58.812820,37.857624 56.852856,33.294994 
	C54.334282,27.431963 56.594002,18.339943 65.791779,18.728264 
z"/>
<path fill="#2177E8" opacity="1.000000" stroke="none" 
	d="
M47.791752,34.951828 
	C47.998692,39.462776 45.742523,41.778885 41.330986,41.895451 
	C37.036503,42.008926 32.666012,42.366211 28.467907,41.717209 
	C26.302673,41.382477 24.439602,39.093201 22.793251,37.343124 
	C24.784794,36.276348 26.423084,35.553520 28.493553,34.882767 
	C32.169312,34.637035 35.412895,34.339233 39.048923,34.085579 
	C40.379841,33.797878 41.318306,33.466030 42.401196,33.058701 
	C42.545616,32.983223 42.837234,32.837708 43.101448,32.796009 
	C43.599491,32.491688 43.833321,32.229065 44.306423,32.167431 
	C45.627716,33.229557 46.709732,34.090694 47.791752,34.951828 
z"/>
<path fill="#F4F4F5" opacity="1.000000" stroke="none" 
	d="
M180.915558,23.333696 
	C180.490540,28.198774 180.490540,32.821331 180.490540,37.729012 
	C178.658539,37.853851 177.244415,37.950211 175.373138,38.077724 
	C175.373138,33.102074 175.373138,28.388607 175.373138,23.870543 
	C173.492783,21.995932 168.113358,24.814291 169.860077,19.180305 
	C175.224213,19.180305 180.462875,19.180305 185.692642,19.180305 
	C185.843613,22.847397 185.843613,22.847397 180.915558,23.333696 
z"/>
<path fill="#357FE5" opacity="1.000000" stroke="none" 
	d="
M28.061375,34.830696 
	C26.423084,35.553520 24.784794,36.276348 22.762230,36.999809 
	C22.892111,34.274311 23.406267,31.548172 23.892673,28.440891 
	C24.740896,29.221346 25.616875,30.382942 26.802439,32.060844 
	C27.428474,33.328335 27.744925,34.079514 28.061375,34.830696 
z"/>
<path fill="#528EE6" opacity="1.000000" stroke="none" 
	d="
M47.851662,34.545002 
	C46.709732,34.090694 45.627716,33.229557 44.257496,31.740879 
	C43.941196,29.379841 43.913097,27.646345 43.880760,25.688148 
	C43.876522,25.463444 43.806808,25.019396 43.806808,25.019396 
	C44.898426,25.587446 45.990047,26.155495 47.421482,26.887547 
	C47.811390,29.413755 47.861481,31.775967 47.851662,34.545002 
z"/>
<path fill="#2C3548" opacity="1.000000" stroke="none" 
	d="
M87.285820,33.313286 
	C85.189201,32.910675 82.121498,32.546604 81.890808,31.535341 
	C81.360252,29.209621 81.393570,25.965942 82.696579,24.201361 
	C84.525291,21.724833 87.667892,22.592518 88.409462,25.571442 
	C88.978745,27.858311 87.931557,30.547573 87.285820,33.313286 
z"/>
<path fill="#DEE6F9" opacity="1.000000" stroke="none" 
	d="
M28.493553,34.882767 
	C27.744925,34.079514 27.428474,33.328335 27.035320,32.274834 
	C26.972845,31.645710 26.930269,31.304228 27.010311,30.994425 
	C27.639183,28.560396 24.716347,24.527637 29.747616,24.085348 
	C33.679295,23.739721 38.380035,22.784101 38.493164,29.248112 
	C38.496521,29.439907 38.971596,29.623449 39.605522,30.147303 
	C39.989342,30.657610 39.994370,30.831453 39.648495,31.108578 
	C39.083885,32.155052 38.870178,33.098244 38.656475,34.041431 
	C35.412895,34.339233 32.169312,34.637035 28.493553,34.882767 
z"/>
<path fill="#DDE3F3" opacity="1.000000" stroke="none" 
	d="
M39.999401,31.005295 
	C39.994370,30.831453 39.989342,30.657610 39.971031,30.223183 
	C40.998829,28.319941 42.039906,26.677284 43.443893,25.027012 
	C43.806808,25.019396 43.876522,25.463444 43.682533,25.998167 
	C43.298264,28.002024 43.107979,29.471155 42.649303,31.013092 
	C41.920948,31.380718 41.460976,31.675537 40.761688,31.900101 
	C40.232788,31.628096 40.058468,31.353245 39.999401,31.005295 
z"/>
<path fill="#A5AFD0" opacity="1.000000" stroke="none" 
	d="
M42.917694,30.940289 
	C43.107979,29.471155 43.298264,28.002024 43.686775,26.222870 
	C43.913097,27.646345 43.941196,29.379841 44.018223,31.539886 
	C43.833321,32.229065 43.599491,32.491688 43.146534,32.481331 
	C42.924171,31.785666 42.920933,31.362978 42.917694,30.940289 
z"/>
<path fill="#1B306C" opacity="1.000000" stroke="none" 
	d="
M39.648495,31.108578 
	C40.058468,31.353245 40.232788,31.628096 40.887260,32.168022 
	C41.587029,32.715527 41.921902,32.924854 42.256775,33.134178 
	C41.318306,33.466030 40.379841,33.797878 39.048923,34.085579 
	C38.870178,33.098244 39.083885,32.155052 39.648495,31.108578 
z"/>
<path fill="#C0CDED" opacity="1.000000" stroke="none" 
	d="
M42.401196,33.058701 
	C41.921902,32.924854 41.587029,32.715527 41.126579,32.238281 
	C41.460976,31.675537 41.920948,31.380718 42.649307,31.013092 
	C42.920933,31.362978 42.924171,31.785666 42.882324,32.523033 
	C42.837234,32.837708 42.545616,32.983223 42.401196,33.058701 
z"/>
</svg>